<mxfile host="app.diagrams.net" modified="2021-10-01T17:28:58.416Z" agent="5.0 (Windows NT 10.0; Win64; x64) AppleWebKit/537.36 (KHTML, like Gecko) Chrome/94.0.4606.61 Safari/537.36" etag="7znnkB3Z_Q7iHhCV6BRS" version="15.4.0" type="github" pages="2">
  <diagram id="yoYdtd2djBJbXm_HWHxz" name="GenericLayout">
    <mxGraphModel dx="782" dy="1479" grid="1" gridSize="10" guides="1" tooltips="1" connect="1" arrows="1" fold="1" page="1" pageScale="1" pageWidth="850" pageHeight="1100" math="0" shadow="0">
      <root>
        <mxCell id="0" />
        <mxCell id="1" parent="0" />
        <mxCell id="3N2yypHkeLpr1BuUNtrp-8" value="" style="whiteSpace=wrap;html=1;aspect=fixed;" parent="1" vertex="1">
          <mxGeometry x="280" y="-430" width="450" height="450" as="geometry" />
        </mxCell>
        <mxCell id="3N2yypHkeLpr1BuUNtrp-3" value="SQL Server" style="shape=cylinder3;whiteSpace=wrap;html=1;boundedLbl=1;backgroundOutline=1;size=15;" parent="1" vertex="1">
          <mxGeometry x="630" y="-320" width="80" height="120" as="geometry" />
        </mxCell>
        <mxCell id="3N2yypHkeLpr1BuUNtrp-2" value="&lt;b&gt;Web API&lt;br&gt;&lt;/b&gt;1. Generic Fetch Web API&lt;br&gt;2. Update/Insert&lt;br&gt;/Delete Table&amp;nbsp;&lt;br&gt;Data&amp;nbsp;&lt;br&gt;3. Table Create/Del" style="rounded=1;whiteSpace=wrap;html=1;" parent="1" vertex="1">
          <mxGeometry x="320" y="-330" width="120" height="240" as="geometry" />
        </mxCell>
        <mxCell id="3N2yypHkeLpr1BuUNtrp-5" value="1.Light Weight ORM - Dapper&lt;br&gt;2. DBContext Data First" style="whiteSpace=wrap;html=1;aspect=fixed;" parent="1" vertex="1">
          <mxGeometry x="470" y="-160" width="100" height="100" as="geometry" />
        </mxCell>
        <mxCell id="3N2yypHkeLpr1BuUNtrp-4" value="Business Logic" style="rounded=1;whiteSpace=wrap;html=1;" parent="1" vertex="1">
          <mxGeometry x="430" y="-320" width="140" height="70" as="geometry" />
        </mxCell>
        <mxCell id="3N2yypHkeLpr1BuUNtrp-7" value="Presentation Layer" style="rounded=0;whiteSpace=wrap;html=1;" parent="1" vertex="1">
          <mxGeometry x="90" y="-320" width="50" height="210" as="geometry" />
        </mxCell>
        <mxCell id="3N2yypHkeLpr1BuUNtrp-9" value="" style="html=1;shadow=0;dashed=0;align=center;verticalAlign=middle;shape=mxgraph.arrows2.arrow;dy=0.6;dx=40;flipH=1;notch=0;" parent="1" vertex="1">
          <mxGeometry x="160" y="-310" width="140" height="70" as="geometry" />
        </mxCell>
        <mxCell id="3N2yypHkeLpr1BuUNtrp-11" value="" style="html=1;shadow=0;dashed=0;align=center;verticalAlign=middle;shape=mxgraph.arrows2.arrow;dy=0.6;dx=40;notch=0;" parent="1" vertex="1">
          <mxGeometry x="160" y="-175" width="140" height="70" as="geometry" />
        </mxCell>
        <mxCell id="3N2yypHkeLpr1BuUNtrp-28" value="Approval Work Flow" style="rounded=0;whiteSpace=wrap;html=1;" parent="1" vertex="1">
          <mxGeometry x="100" y="-400" width="600" height="60" as="geometry" />
        </mxCell>
        <mxCell id="3N2yypHkeLpr1BuUNtrp-19" value="" style="shape=flexArrow;endArrow=classic;startArrow=classic;html=1;rounded=0;edgeStyle=orthogonalEdgeStyle;" parent="1" edge="1">
          <mxGeometry width="100" height="100" relative="1" as="geometry">
            <mxPoint x="590" y="-90" as="sourcePoint" />
            <mxPoint x="690" y="-190" as="targetPoint" />
          </mxGeometry>
        </mxCell>
        <mxCell id="3N2yypHkeLpr1BuUNtrp-20" value="" style="html=1;shadow=0;dashed=0;align=center;verticalAlign=middle;shape=mxgraph.arrows2.arrow;dy=1;dx=22.67;direction=south;notch=0;" parent="1" vertex="1">
          <mxGeometry x="484" y="-235" width="20" height="60" as="geometry" />
        </mxCell>
        <mxCell id="3N2yypHkeLpr1BuUNtrp-21" value="" style="html=1;shadow=0;dashed=0;align=center;verticalAlign=middle;shape=mxgraph.arrows2.arrow;dy=1;dx=14.67;direction=north;notch=0;" parent="1" vertex="1">
          <mxGeometry x="512" y="-230" width="20" height="60" as="geometry" />
        </mxCell>
        <mxCell id="3N2yypHkeLpr1BuUNtrp-30" value="Versioning&lt;br&gt;CDC&lt;br&gt;Change Data Capture" style="shape=step;perimeter=stepPerimeter;whiteSpace=wrap;html=1;fixedSize=1;" parent="1" vertex="1">
          <mxGeometry x="580" y="-237.5" width="110" height="65" as="geometry" />
        </mxCell>
      </root>
    </mxGraphModel>
  </diagram>
  <diagram id="y0hUB6qg4qWddn2lhrSZ" name="Components">
    <mxGraphModel dx="1872" dy="379" grid="1" gridSize="10" guides="1" tooltips="1" connect="1" arrows="1" fold="1" page="1" pageScale="1" pageWidth="850" pageHeight="1100" math="0" shadow="0">
      <root>
        <mxCell id="13ejvIwZYMMqMWCN97-g-0" />
        <mxCell id="13ejvIwZYMMqMWCN97-g-1" parent="13ejvIwZYMMqMWCN97-g-0" />
        <mxCell id="djBtDBpn0Fjz__Azsnwe-11" value="" style="points=[[0.25,0,0],[0.5,0,0],[0.75,0,0],[1,0.25,0],[1,0.5,0],[1,0.75,0],[0.75,1,0],[0.5,1,0],[0.25,1,0],[0,0.75,0],[0,0.5,0],[0,0.25,0]];rounded=1;dashed=1;dashPattern=5 2 1 2;labelPosition=center;verticalLabelPosition=top;align=right;verticalAlign=bottom;fontSize=8;" vertex="1" parent="13ejvIwZYMMqMWCN97-g-1">
          <mxGeometry x="-20" y="290" width="275" height="600" as="geometry" />
        </mxCell>
        <mxCell id="djBtDBpn0Fjz__Azsnwe-5" value="" style="points=[[0.25,0,0],[0.5,0,0],[0.75,0,0],[1,0.25,0],[1,0.5,0],[1,0.75,0],[0.75,1,0],[0.5,1,0],[0.25,1,0],[0,0.75,0],[0,0.5,0],[0,0.25,0]];rounded=1;dashed=1;dashPattern=5 2 1 2;labelPosition=center;verticalLabelPosition=top;align=right;verticalAlign=bottom;fontSize=8;" vertex="1" parent="13ejvIwZYMMqMWCN97-g-1">
          <mxGeometry x="325" y="350" width="265" height="330" as="geometry" />
        </mxCell>
        <mxCell id="CEuCjNbCS-pu4OujHG4Z-0" value="Data Access" style="html=1;dropTarget=0;align=left;" parent="13ejvIwZYMMqMWCN97-g-1" vertex="1">
          <mxGeometry x="370" y="380" width="170" height="90" as="geometry" />
        </mxCell>
        <mxCell id="CEuCjNbCS-pu4OujHG4Z-1" value="" style="shape=module;jettyWidth=8;jettyHeight=4;" parent="CEuCjNbCS-pu4OujHG4Z-0" vertex="1">
          <mxGeometry x="1" width="69" height="30" relative="1" as="geometry">
            <mxPoint x="-80" y="15" as="offset" />
          </mxGeometry>
        </mxCell>
        <mxCell id="CEuCjNbCS-pu4OujHG4Z-2" value="DataBase" style="aspect=fixed;html=1;points=[];align=left;image;fontSize=12;image=img/lib/azure2/databases/SQL_Database.svg;fontFamily=Helvetica;fontColor=#000000;strokeColor=#000000;fillColor=#ffffff;" parent="13ejvIwZYMMqMWCN97-g-1" vertex="1">
          <mxGeometry x="350" y="485" width="150" height="150" as="geometry" />
        </mxCell>
        <mxCell id="yxPaw60GtT4yM2VsDhWt-2" value="" style="endArrow=open;endFill=1;endSize=12;html=1;rounded=0;edgeStyle=orthogonalEdgeStyle;" parent="13ejvIwZYMMqMWCN97-g-1" edge="1" target="7FZYkWP2k6L7iK5dleig-6">
          <mxGeometry width="160" relative="1" as="geometry">
            <mxPoint x="395" y="89.5" as="sourcePoint" />
            <mxPoint x="445" y="89.5" as="targetPoint" />
          </mxGeometry>
        </mxCell>
        <mxCell id="djBtDBpn0Fjz__Azsnwe-0" value="" style="points=[[0.25,0,0],[0.5,0,0],[0.75,0,0],[1,0.25,0],[1,0.5,0],[1,0.75,0],[0.75,1,0],[0.5,1,0],[0.25,1,0],[0,0.75,0],[0,0.5,0],[0,0.25,0]];rounded=1;dashed=1;dashPattern=5 2 1 2;labelPosition=center;verticalLabelPosition=top;align=right;verticalAlign=bottom;fontSize=8;" vertex="1" parent="13ejvIwZYMMqMWCN97-g-1">
          <mxGeometry x="635" y="340" width="150" height="340" as="geometry" />
        </mxCell>
        <mxCell id="rCWzzTYEou9588F6fZ6Q-3" value="Generic Fetch &#xa;API" style="shape=module;align=left;spacingLeft=20;align=center;verticalAlign=top;" parent="13ejvIwZYMMqMWCN97-g-1" vertex="1">
          <mxGeometry x="660" y="390" width="100" height="50" as="geometry" />
        </mxCell>
        <mxCell id="rCWzzTYEou9588F6fZ6Q-4" value="Web API &#xa;Del/Insert&#xa;/Delete &#xa;Data" style="shape=module;align=left;spacingLeft=20;align=center;verticalAlign=top;" parent="13ejvIwZYMMqMWCN97-g-1" vertex="1">
          <mxGeometry x="660" y="450" width="100" height="75" as="geometry" />
        </mxCell>
        <mxCell id="djBtDBpn0Fjz__Azsnwe-1" value="" style="points=[[0.25,0,0],[0.5,0,0],[0.75,0,0],[1,0.25,0],[1,0.5,0],[1,0.75,0],[0.75,1,0],[0.5,1,0],[0.25,1,0],[0,0.75,0],[0,0.5,0],[0,0.25,0]];rounded=1;dashed=1;dashPattern=5 2 1 2;labelPosition=center;verticalLabelPosition=top;align=right;verticalAlign=bottom;fontSize=8;" vertex="1" parent="13ejvIwZYMMqMWCN97-g-1">
          <mxGeometry x="230" y="30" width="375" height="100" as="geometry" />
        </mxCell>
        <mxCell id="rCWzzTYEou9588F6fZ6Q-5" value="«interface»&lt;br&gt;IDynamicQuery" style="html=1;" parent="13ejvIwZYMMqMWCN97-g-1" vertex="1">
          <mxGeometry x="285" y="45" width="110" height="70" as="geometry" />
        </mxCell>
        <mxCell id="rCWzzTYEou9588F6fZ6Q-6" value="&lt;p style=&quot;margin: 0px ; margin-top: 4px ; text-align: center&quot;&gt;&lt;b&gt;Class&lt;/b&gt;&lt;/p&gt;&lt;hr size=&quot;1&quot;&gt;&lt;div style=&quot;height: 2px&quot;&gt;DynamicQuery&lt;/div&gt;" style="verticalAlign=top;align=left;overflow=fill;fontSize=12;fontFamily=Helvetica;html=1;" parent="13ejvIwZYMMqMWCN97-g-1" vertex="1">
          <mxGeometry x="440" y="50" width="140" height="60" as="geometry" />
        </mxCell>
        <mxCell id="djBtDBpn0Fjz__Azsnwe-17" style="edgeStyle=none;curved=1;sketch=1;orthogonalLoop=1;jettySize=auto;html=1;dashed=1;endArrow=open;endSize=8;verticalAlign=bottom;" edge="1" parent="13ejvIwZYMMqMWCN97-g-1">
          <mxGeometry relative="1" as="geometry">
            <mxPoint x="390" y="340" as="targetPoint" />
            <mxPoint x="390" y="230" as="sourcePoint" />
          </mxGeometry>
        </mxCell>
        <mxCell id="7FZYkWP2k6L7iK5dleig-1" value="" style="edgeStyle=none;curved=1;sketch=1;orthogonalLoop=1;jettySize=auto;html=1;dashed=1;sketchStyle=rough;endArrow=open;endSize=8;verticalAlign=bottom;" edge="1" parent="13ejvIwZYMMqMWCN97-g-1" source="djBtDBpn0Fjz__Azsnwe-16">
          <mxGeometry relative="1" as="geometry">
            <mxPoint x="320" y="410" as="targetPoint" />
          </mxGeometry>
        </mxCell>
        <mxCell id="djBtDBpn0Fjz__Azsnwe-16" value="" style="shape=waypoint;sketch=0;size=6;pointerEvents=1;points=[];fillColor=none;resizable=0;rotatable=0;perimeter=centerPerimeter;snapToPoint=1;" vertex="1" parent="13ejvIwZYMMqMWCN97-g-1">
          <mxGeometry x="245" y="390" width="40" height="40" as="geometry" />
        </mxCell>
        <mxCell id="djBtDBpn0Fjz__Azsnwe-18" value="Reference Data" style="verticalAlign=top;align=left;spacingTop=8;spacingLeft=2;spacingRight=12;shape=cube;size=10;direction=south;fontStyle=4;html=1;" vertex="1" parent="13ejvIwZYMMqMWCN97-g-1">
          <mxGeometry x="50" y="315" width="180" height="120" as="geometry" />
        </mxCell>
        <mxCell id="djBtDBpn0Fjz__Azsnwe-19" value="Reference Data&#xa;Add/U/Del/Insert" style="shape=module;align=left;spacingLeft=20;align=center;verticalAlign=top;" vertex="1" parent="13ejvIwZYMMqMWCN97-g-1">
          <mxGeometry x="70" y="350" width="120" height="70" as="geometry" />
        </mxCell>
        <mxCell id="djBtDBpn0Fjz__Azsnwe-20" value="Mapping Data" style="verticalAlign=top;align=left;spacingTop=8;spacingLeft=2;spacingRight=12;shape=cube;size=10;direction=south;fontStyle=4;html=1;" vertex="1" parent="13ejvIwZYMMqMWCN97-g-1">
          <mxGeometry x="50" y="450" width="180" height="120" as="geometry" />
        </mxCell>
        <mxCell id="djBtDBpn0Fjz__Azsnwe-21" value="Mapping Data&#xa;Add/U/Del/Insert" style="shape=module;align=left;spacingLeft=20;align=center;verticalAlign=top;" vertex="1" parent="13ejvIwZYMMqMWCN97-g-1">
          <mxGeometry x="70" y="485" width="120" height="70" as="geometry" />
        </mxCell>
        <mxCell id="djBtDBpn0Fjz__Azsnwe-22" value="Meta Data" style="verticalAlign=top;align=left;spacingTop=8;spacingLeft=2;spacingRight=12;shape=cube;size=10;direction=south;fontStyle=4;html=1;" vertex="1" parent="13ejvIwZYMMqMWCN97-g-1">
          <mxGeometry x="50" y="600" width="180" height="120" as="geometry" />
        </mxCell>
        <mxCell id="djBtDBpn0Fjz__Azsnwe-23" value="Cross Feild Data" style="verticalAlign=top;align=left;spacingTop=8;spacingLeft=2;spacingRight=12;shape=cube;size=10;direction=south;fontStyle=4;html=1;" vertex="1" parent="13ejvIwZYMMqMWCN97-g-1">
          <mxGeometry x="50" y="740" width="180" height="120" as="geometry" />
        </mxCell>
        <mxCell id="djBtDBpn0Fjz__Azsnwe-24" value="Cross field data&#xa;Add/U/Del/Insert" style="shape=module;align=left;spacingLeft=20;align=center;verticalAlign=top;" vertex="1" parent="13ejvIwZYMMqMWCN97-g-1">
          <mxGeometry x="50" y="780" width="120" height="70" as="geometry" />
        </mxCell>
        <mxCell id="djBtDBpn0Fjz__Azsnwe-25" value="Meta Data&#xa;Add/U/Del/Insert" style="shape=module;align=left;spacingLeft=20;align=center;verticalAlign=top;" vertex="1" parent="13ejvIwZYMMqMWCN97-g-1">
          <mxGeometry x="70" y="635" width="120" height="70" as="geometry" />
        </mxCell>
        <mxCell id="7FZYkWP2k6L7iK5dleig-9" style="edgeStyle=none;curved=1;sketch=1;orthogonalLoop=1;jettySize=auto;html=1;dashed=1;endArrow=open;endSize=8;verticalAlign=bottom;exitX=0.371;exitY=-0.013;exitDx=0;exitDy=0;exitPerimeter=0;" edge="1" parent="13ejvIwZYMMqMWCN97-g-1" source="djBtDBpn0Fjz__Azsnwe-0" target="7FZYkWP2k6L7iK5dleig-6">
          <mxGeometry relative="1" as="geometry">
            <Array as="points">
              <mxPoint x="710" y="220" />
            </Array>
          </mxGeometry>
        </mxCell>
        <mxCell id="7FZYkWP2k6L7iK5dleig-6" value="Generic Table Data Fetch" style="verticalAlign=top;align=left;spacingTop=8;spacingLeft=2;spacingRight=12;shape=cube;size=10;direction=south;fontStyle=4;html=1;" vertex="1" parent="13ejvIwZYMMqMWCN97-g-1">
          <mxGeometry x="335" y="160" width="175" height="105" as="geometry" />
        </mxCell>
        <mxCell id="7FZYkWP2k6L7iK5dleig-7" value="Generic Table &#xa;Fetch" style="shape=module;align=left;spacingLeft=20;align=center;verticalAlign=top;" vertex="1" parent="13ejvIwZYMMqMWCN97-g-1">
          <mxGeometry x="360" y="200" width="100" height="50" as="geometry" />
        </mxCell>
      </root>
    </mxGraphModel>
  </diagram>
</mxfile>
